<?xml version="1.0" encoding="UTF-8"?>
<svg width="147px" height="79px" viewBox="0 0 147 79" version="1.1" xmlns="http://www.w3.org/2000/svg" xmlns:xlink="http://www.w3.org/1999/xlink">
    <title>onego_logo</title>
    <defs>
        <polygon id="path-1" points="0 0 146.828052 0 146.828052 78.3872208 0 78.3872208"></polygon>
    </defs>
    <g id="Page-1" stroke="none" stroke-width="1" fill="none" fill-rule="evenodd">
        <g id="Onego_Homepage-" transform="translate(-886.000000, -8134.000000)">
            <g id="onego_logo" transform="translate(886.000000, 8134.000000)">
                <mask id="mask-2" fill="white">
                    <use xlink:href="#path-1"></use>
                </mask>
                <g id="Clip-1"></g>
                <path d="M98.6342436,35.6789227 C103.402821,35.6789227 107.440217,31.7368984 107.440217,27.0636923 C107.440217,22.3904861 103.402821,18.4802523 98.6342436,18.4802523 C93.8656658,18.4802523 89.82827,22.3904861 89.82827,27.0636923 C89.82827,31.7368984 93.8656658,35.6789227 98.6342436,35.6789227 Z M98.6342436,32.3727088 C95.900259,32.3727088 93.6113417,29.9566294 93.6113417,27.0636923 C93.6113417,24.2025456 95.900259,21.7864662 98.6342436,21.7864662 C101.336438,21.7864662 103.625355,24.2025456 103.625355,27.0636923 C103.625355,29.9566294 101.336438,32.3727088 98.6342436,32.3727088 Z M114.688455,35.2974365 L114.688455,24.901937 C114.942779,23.1534585 116.627677,21.7864662 118.66227,21.7864662 C120.696863,21.7864662 122.127437,23.3759921 122.127437,25.6013284 L122.127437,35.2974365 L125.878718,35.2974365 L125.878718,24.838356 C125.878718,21.1188654 123.367267,18.4802523 119.774938,18.4802523 C117.613183,18.4802523 115.705752,19.5293394 114.688455,21.0552843 L114.688455,18.8617386 L110.810012,18.8617386 L110.810012,35.2974365 L114.688455,35.2974365 Z M137.768371,35.6789227 C140.15266,35.6789227 143.013807,34.6616261 144.44438,33.1356812 L141.99651,30.5924398 C141.074585,31.5461553 139.262526,32.2455467 137.736581,32.2455467 C135.384083,32.2455467 133.667395,30.6560208 133.190537,28.398894 L145.588839,28.398894 C145.588839,22.326905 142.632321,18.4802523 137.545838,18.4802523 C132.872632,18.4802523 129.184932,22.1043714 129.184932,27.0319017 C129.184932,32.0865941 133.063375,35.6789227 137.768371,35.6789227 Z M141.869348,25.4423758 L133.222327,25.4423758 C133.794557,23.2806206 135.543035,21.9136283 137.70479,21.9136283 C140.025498,21.9136283 141.424281,23.3759921 141.869348,25.4423758 Z" id="one" fill="#FFFFFF" fill-rule="nonzero" mask="url(#mask-2)"></path>
                <path d="M103.940299,72.2308761 C107.782674,72.2308761 111.736963,70.6267778 114.310981,67.9408458 L114.310981,57.3836405 L102.970379,57.3836405 L102.970379,61.6736709 L108.939117,61.6736709 L108.939117,65.5906552 C107.484237,66.6351843 105.693615,67.2320581 103.940299,67.2320581 C99.575659,67.2320581 95.8825024,63.4269877 95.8825024,58.9504342 C95.8825024,54.5111854 99.575659,50.706115 103.940299,50.706115 C106.290489,50.706115 108.789898,51.8252533 110.319387,53.5785701 L114.310981,49.9973273 C111.736963,47.3113953 107.782674,45.7072969 103.940299,45.7072969 C96.5166808,45.7072969 90.2122014,51.7506441 90.2122014,58.9504342 C90.2122014,66.1502244 96.5166808,72.2308761 103.940299,72.2308761 Z M131.545712,72.2308761 C138.969329,72.2308761 145.161895,66.1502244 145.161895,58.9504342 C145.161895,51.7506441 138.969329,45.7072969 131.545712,45.7072969 C124.196703,45.7072969 117.929528,51.7506441 117.929528,58.9504342 C117.929528,66.1502244 124.196703,72.2308761 131.545712,72.2308761 Z M131.545712,67.2320581 C127.255681,67.2320581 123.599829,63.4269877 123.599829,58.9504342 C123.599829,54.5111854 127.255681,50.706115 131.545712,50.706115 C135.873047,50.706115 139.528899,54.5111854 139.528899,58.9504342 C139.528899,63.4269877 135.873047,67.2320581 131.545712,67.2320581 Z" id="GO" fill="#FFFFFF" fill-rule="nonzero" mask="url(#mask-2)"></path>
                <path d="M37.5077115,43.0712478 C34.1508825,43.3600398 31.1850945,40.8641058 30.8964915,37.5072768 C30.6075105,34.1506368 33.1034445,31.1846598 36.4602735,30.8960568 C39.8169135,30.6072648 42.7827015,33.1031988 43.0714935,36.4600278 C43.3604745,39.8166678 40.8645405,42.7826448 37.5077115,43.0712478 M73.8304875,33.8138388 C73.6898715,32.1827688 73.4439825,30.5855298 73.1018925,29.0276028 C72.8057295,27.6785208 72.4352895,26.3593008 71.9975655,25.0733448 L71.4916125,23.6770128 L70.1060535,19.8518418 L51.2710695,26.7168888 L51.1856415,26.7072498 L49.4358795,27.3411558 C46.2646485,23.2591338 41.1559785,20.8087488 35.6333985,21.2838948 C26.9764425,22.0285548 20.5394805,29.6773848 21.2841405,38.3343408 C22.0291785,46.9909188 29.6776305,53.4280698 38.3345865,52.6832208 C46.7318565,51.9610518 53.0395425,44.7423858 52.7307165,36.4088088 L63.9170595,32.3557038 C64.0455795,33.1071678 64.1517975,33.8675148 64.2181365,34.6407138 C65.5101405,49.6578978 54.3438315,62.9260758 39.3268365,64.2178908 C28.4483745,65.1536298 18.4918545,59.5494018 13.3366905,50.6824668 C11.7419085,47.9391318 10.6107435,44.8830018 10.0509255,41.6114118 C9.9222165,40.8599478 9.8161875,40.0996008 9.7496595,39.3265908 C8.4578445,24.3094068 19.6239645,11.0410398 34.6411485,9.7492248 C40.0756545,9.2818278 45.2803365,10.4468238 49.7711655,12.8352168 L54.2825955,4.3150968 C48.2058675,1.0847088 41.1665625,-0.4953312 33.8142735,0.1372518 C13.4971515,1.8851238 -1.6103745,19.8361548 0.1374975,40.1534658 C0.2781135,41.7845358 0.5240025,43.3815858 0.8660925,44.9395128 C1.1622555,46.2885948 1.5325065,47.6076258 1.9702305,48.8937708 L2.4761835,50.2902918 C2.9694735,51.5673648 3.5309925,52.8081498 4.1556375,54.0088668 C10.8492615,66.8740968 24.8273235,75.1485168 40.1537115,73.8298638 C60.4708335,72.0821808 75.5781705,54.1309608 73.8304875,33.8138388" id="Fill-2" fill="#FFFFFF" mask="url(#mask-2)"></path>
            </g>
        </g>
    </g>
</svg>